<?xml version="1.0" encoding="UTF-8"?>
<svg width="595px" height="842px" viewBox="0 0 595 842" version="1.1" xmlns="http://www.w3.org/2000/svg" xmlns:xlink="http://www.w3.org/1999/xlink">
    <!-- Generator: Sketch 49.2 (51160) - http://www.bohemiancoding.com/sketch -->
    <title>A4 Copy 20</title>
    <desc>Created with Sketch.</desc>
    <defs></defs>
    <g id="A4-Copy-20" stroke="none" stroke-width="1" fill="none" fill-rule="evenodd" font-family="NanumPen, Nanum Pen Script" font-weight="normal">
        <g id="Group-Copy" transform="translate(-14.000000, 104.000000)" fill="#000000">
            <text id="poepen" transform="translate(322.812427, 143.390596) rotate(15.000000) translate(-322.812427, -143.390596) " font-size="144">
                <tspan x="157.312427" y="192.890596">poepen</tspan>
            </text>
            <text id="poepen-copy" transform="translate(377.676711, 123.407078) rotate(-15.000000) translate(-377.676711, -123.407078) " font-size="144">
                <tspan x="212.176711" y="172.907078">poepen</tspan>
            </text>
            <text id="poepen-copy-2" transform="translate(303.630923, 122.849847) rotate(15.000000) translate(-303.630923, -122.849847) " font-size="144">
                <tspan x="138.130923" y="172.349847">poepen</tspan>
            </text>
            <text id="poepen-copy-3" transform="translate(385.048311, 174.400747) rotate(-13.000000) translate(-385.048311, -174.400747) " font-size="144">
                <tspan x="219.548311" y="223.900747">poepen</tspan>
            </text>
            <text id="poepen-copy-4" transform="translate(234.828452, 155.469225) rotate(17.000000) translate(-234.828452, -155.469225) " font-size="144">
                <tspan x="69.3284518" y="204.969225">poepen</tspan>
            </text>
            <text id="poepen-copy-5" transform="translate(286.506720, 94.953499) rotate(17.000000) translate(-286.506720, -94.953499) " font-size="72">
                <tspan x="203.50672" y="119.453499">poepen</tspan>
            </text>
            <text id="poepen-copy-6" transform="translate(426.506720, 124.953499) rotate(17.000000) translate(-426.506720, -124.953499) " font-size="72">
                <tspan x="343.50672" y="149.453499">poepen</tspan>
            </text>
            <text id="poepen-copy-7" transform="translate(203.506720, 173.953499) rotate(17.000000) translate(-203.506720, -173.953499) " font-size="72">
                <tspan x="120.50672" y="198.453499">poepen</tspan>
            </text>
            <text id="poepen-copy-8" transform="translate(342.698405, 216.493352) rotate(-9.000000) translate(-342.698405, -216.493352) " font-size="72">
                <tspan x="259.698405" y="240.993352">poepen</tspan>
            </text>
            <text id="poepen-copy-21" transform="translate(464.470163, 207.973127) rotate(14.000000) translate(-464.470163, -207.973127) " font-size="72">
                <tspan x="381.470163" y="232.473127">poepen</tspan>
            </text>
            <text id="poepen-copy-20" transform="translate(386.470163, 80.973127) rotate(-9.000000) translate(-386.470163, -80.973127) " font-size="72">
                <tspan x="303.470163" y="105.473127">poepen</tspan>
            </text>
            <text id="poepen-copy-9" transform="translate(223.470163, 202.973127) rotate(-9.000000) translate(-223.470163, -202.973127) " font-size="72">
                <tspan x="140.470163" y="227.473127">poepen</tspan>
            </text>
            <text id="poepen-copy-10" transform="translate(534.470163, 114.973127) rotate(-9.000000) translate(-534.470163, -114.973127) " font-size="72">
                <tspan x="451.470163" y="139.473127">poepen</tspan>
            </text>
            <text id="poepen-copy-13" transform="translate(484.118651, 186.843542) rotate(10.000000) translate(-484.118651, -186.843542) " font-size="48">
                <tspan x="428.618651" y="203.343542">poepen</tspan>
            </text>
            <text id="poepen-copy-14" transform="translate(139.432155, 84.719687) rotate(10.000000) translate(-139.432155, -84.719687) " font-size="48">
                <tspan x="83.9321552" y="101.219687">poepen</tspan>
            </text>
            <text id="poepen-copy-15" transform="translate(139.432155, 84.719687) rotate(10.000000) translate(-139.432155, -84.719687) " font-size="48">
                <tspan x="83.9321552" y="101.219687">poepen</tspan>
            </text>
            <text id="poepen-copy-16" transform="translate(409.432155, 89.719687) rotate(10.000000) translate(-409.432155, -89.719687) " font-size="48">
                <tspan x="353.932155" y="106.219687">poepen</tspan>
            </text>
            <text id="poepen-copy-17" transform="translate(138.432155, 146.719687) rotate(-13.000000) translate(-138.432155, -146.719687) " font-size="48">
                <tspan x="82.9321552" y="163.219687">poepen</tspan>
            </text>
            <text id="poepen-copy-18" transform="translate(134.263693, 186.279960) rotate(-13.000000) translate(-134.263693, -186.279960) " font-size="48">
                <tspan x="78.7636926" y="202.77996">poepen</tspan>
            </text>
            <text id="poepen-copy-22" transform="translate(234.047854, 227.310055) rotate(-13.000000) translate(-234.047854, -227.310055) " font-size="36">
                <tspan x="192.547854" y="239.810055">poepen</tspan>
            </text>
            <text id="poepen-copy-23" transform="translate(183.047854, 73.310055) rotate(-13.000000) translate(-183.047854, -73.310055) " font-size="36">
                <tspan x="141.547854" y="85.8100551">poepen</tspan>
            </text>
            <text id="poepen-copy-24" transform="translate(183.047854, 73.310055) rotate(-13.000000) translate(-183.047854, -73.310055) " font-size="36">
                <tspan x="141.547854" y="85.8100551">poepen</tspan>
            </text>
            <text id="poepen-copy-25" transform="translate(89.047854, 145.310055) rotate(-13.000000) translate(-89.047854, -145.310055) " font-size="36">
                <tspan x="47.5478543" y="157.810055">poepen</tspan>
            </text>
            <text id="poepen-copy-26" transform="translate(185.047854, 191.310055) rotate(-13.000000) translate(-185.047854, -191.310055) " font-size="36">
                <tspan x="143.547854" y="203.810055">poepen</tspan>
            </text>
            <text id="poepen-copy-19" transform="translate(518.263693, 174.279960) rotate(11.000000) translate(-518.263693, -174.279960) " font-size="48">
                <tspan x="462.763693" y="190.77996">poepen</tspan>
            </text>
            <text id="poepen-copy-11" transform="translate(88.470163, 120.973127) rotate(-9.000000) translate(-88.470163, -120.973127) " font-size="72">
                <tspan x="5.47016257" y="145.473127">poepen</tspan>
            </text>
            <text id="poepen-copy-27" transform="translate(123.470163, 222.973127) rotate(-9.000000) translate(-123.470163, -222.973127) " font-size="72">
                <tspan x="40.4701626" y="247.473127">poepen</tspan>
            </text>
            <text id="poepen-copy-28" transform="translate(364.470163, 57.973127) rotate(-9.000000) translate(-364.470163, -57.973127) " font-size="72">
                <tspan x="281.470163" y="82.4731267">poepen</tspan>
            </text>
            <text id="poepen-copy-29" transform="translate(254.470163, 57.973127) rotate(-9.000000) translate(-254.470163, -57.973127) " font-size="72">
                <tspan x="171.470163" y="82.4731267">poepen</tspan>
            </text>
            <text id="poepen-copy-12" transform="translate(198.470163, 168.973127) rotate(-9.000000) translate(-198.470163, -168.973127) " font-size="72">
                <tspan x="115.470163" y="193.473127">poepen</tspan>
            </text>
        </g>
    </g>
</svg>