<?xml version="1.0" encoding="UTF-8"?>
<svg width="36px" height="19px" viewBox="0 0 36 19" version="1.1" xmlns="http://www.w3.org/2000/svg" xmlns:xlink="http://www.w3.org/1999/xlink">
    <!-- Generator: Sketch 49.2 (51160) - http://www.bohemiancoding.com/sketch -->
    <title>book icon  copy</title>
    <desc>Created with Sketch.</desc>
    <defs></defs>
    <g id="Page-1" stroke="none" stroke-width="1" fill="none" fill-rule="evenodd">
        <g id="zero-state-1.0" transform="translate(-153.000000, -238.000000)" fill="#FFFFFF">
            <g id="Group-2" transform="translate(32.000000, 85.000000)">
                <g id="book-icon--copy" transform="translate(121.000000, 153.000000)">
                    <path d="M5.63768116,2.07792208 L3,16 C5.6324156,14.7532468 8.06719821,14.1298701 10.3043478,14.1298701 C12.5414974,14.1298701 14.7733815,14.7532468 17,16 L17,2.07792208 C15.4994571,0.692640693 13.741003,0 11.7246377,0 C9.70827237,0 7.67928686,0.692640693 5.63768116,2.07792208 Z" id="Path-2-Copy"></path>
                    <path d="M20.6376812,2.07792208 L18,16 C20.6324156,14.7532468 23.0671982,14.1298701 25.3043478,14.1298701 C27.5414974,14.1298701 29.7733815,14.7532468 32,16 L32,2.07792208 C30.4994571,0.692640693 28.741003,0 26.7246377,0 C24.7082724,0 22.6792869,0.692640693 20.6376812,2.07792208 Z" id="Path-2-Copy-2" transform="translate(25.000000, 8.000000) scale(-1, 1) translate(-25.000000, -8.000000) "></path>
                    <path d="M2.49710983,4.03884546 L0,17.7516055 C0.150113099,18.2915943 0.288841423,18.6378761 0.416184971,18.7904509 C0.54352852,18.9430257 0.751621005,19.0122821 1.04046243,18.99822 L34.7514451,18.99822 C35.3227528,18.9818511 35.6695736,18.9125947 35.7919075,18.7904509 C35.9142414,18.6683071 35.9836056,18.3220253 36,17.7516055 C34.1583078,8.98475042 33.1872095,4.41383042 33.0867052,4.03884546 C32.9862009,3.66386049 32.6393801,3.31757867 32.0462428,3 L34.3352601,17.3360673 L1.4566474,17.3360673 C3.12138728,9.02530364 3.95375723,4.45438364 3.95375723,3.62330727 C3.95375723,2.79223091 3.46820809,2.93074364 2.49710983,4.03884546 Z" id="Path-2"></path>
                    <path d="M5,17 C6.6839536,15.6666667 8.4493857,15 10.2962963,15 C12.1432069,15 14.0444415,15.6666667 16,17 L5,17 Z" id="Path-3"></path>
                    <path d="M20,17 C21.6839536,15.6666667 23.4493857,15 25.2962963,15 C27.1432069,15 29.0444415,15.6666667 31,17 L20,17 Z" id="Path-3-Copy"></path>
                </g>
            </g>
        </g>
    </g>
</svg>