<?xml version="1.0" encoding="UTF-8"?>
<svg width="595px" height="842px" viewBox="0 0 595 842" version="1.1" xmlns="http://www.w3.org/2000/svg" xmlns:xlink="http://www.w3.org/1999/xlink">
    <!-- Generator: Sketch 49.2 (51160) - http://www.bohemiancoding.com/sketch -->
    <title>verhaal poepen titel</title>
    <desc>Created with Sketch.</desc>
    <defs></defs>
    <g id="verhaal-poepen-titel" stroke="none" stroke-width="1" fill="none" fill-rule="evenodd" font-family="NanumPen, Nanum Pen Script" font-weight="normal">
        <g id="Group-Copy" transform="translate(-29.000000, -16.000000)" fill="#000000">
            <text id="poepen" transform="translate(351.812427, 423.390596) rotate(15.000000) translate(-351.812427, -423.390596) " font-size="144">
                <tspan x="186.312427" y="472.890596">poepen</tspan>
            </text>
            <text id="poepen-copy" transform="translate(406.676711, 403.407078) rotate(-15.000000) translate(-406.676711, -403.407078) " font-size="144">
                <tspan x="241.176711" y="452.907078">poepen</tspan>
            </text>
            <text id="poepen-copy-2" transform="translate(332.630923, 402.849847) rotate(15.000000) translate(-332.630923, -402.849847) " font-size="144">
                <tspan x="167.130923" y="452.349847">poepen</tspan>
            </text>
            <text id="poepen-copy-3" transform="translate(414.048311, 454.400747) rotate(-13.000000) translate(-414.048311, -454.400747) " font-size="144">
                <tspan x="248.548311" y="503.900747">poepen</tspan>
            </text>
            <text id="poepen-copy-4" transform="translate(263.828452, 435.469225) rotate(17.000000) translate(-263.828452, -435.469225) " font-size="144">
                <tspan x="98.3284518" y="484.969225">poepen</tspan>
            </text>
            <text id="poepen-copy-30" transform="translate(263.828452, 435.469225) rotate(17.000000) translate(-263.828452, -435.469225) " font-size="144">
                <tspan x="98.3284518" y="484.969225">poepen</tspan>
            </text>
            <text id="poepen-copy-5" transform="translate(315.506720, 374.953499) rotate(17.000000) translate(-315.506720, -374.953499) " font-size="72">
                <tspan x="232.50672" y="399.453499">poepen</tspan>
            </text>
            <text id="poepen-copy-31" transform="translate(529.506720, 607.953499) rotate(17.000000) translate(-529.506720, -607.953499) " font-size="72">
                <tspan x="446.50672" y="632.453499">poepen</tspan>
            </text>
            <text id="poepen-copy-6" transform="translate(455.506720, 404.953499) rotate(17.000000) translate(-455.506720, -404.953499) " font-size="72">
                <tspan x="372.50672" y="429.453499">poepen</tspan>
            </text>
            <text id="poepen-copy-7" transform="translate(232.506720, 453.953499) rotate(17.000000) translate(-232.506720, -453.953499) " font-size="72">
                <tspan x="149.50672" y="478.453499">poepen</tspan>
            </text>
            <text id="poepen-copy-8" transform="translate(371.698405, 496.493352) rotate(-9.000000) translate(-371.698405, -496.493352) " font-size="72">
                <tspan x="288.698405" y="520.993352">poepen</tspan>
            </text>
            <text id="poepen-copy-32" transform="translate(97.470163, 619.973127) rotate(-9.000000) translate(-97.470163, -619.973127) " font-size="72">
                <tspan x="14.4701626" y="644.473127">poepen</tspan>
            </text>
            <text id="poepen-copy-34" transform="translate(278.470163, 718.973127) rotate(-9.000000) translate(-278.470163, -718.973127) " font-size="72">
                <tspan x="195.470163" y="743.473127">poepen</tspan>
            </text>
            <text id="poepen-copy-40" transform="translate(88.470163, 864.973127) rotate(-9.000000) translate(-88.470163, -864.973127) " font-size="72">
                <tspan x="5.47016257" y="889.473127">poepen</tspan>
            </text>
            <text id="poepen-copy-41" transform="translate(635.470163, 769.973127) rotate(-9.000000) translate(-635.470163, -769.973127) " font-size="72">
                <tspan x="552.470163" y="794.473127">poepen</tspan>
            </text>
            <text id="poepen-copy-35" transform="translate(579.470163, 108.500000) rotate(-9.000000) translate(-579.470163, -108.500000) " font-size="72">
                <tspan x="496.470163" y="133">poepen</tspan>
            </text>
            <text id="poepen-copy-36" transform="translate(88.470163, 66.973127) rotate(-9.000000) translate(-88.470163, -66.973127) " font-size="72">
                <tspan x="5.47016257" y="91.4731267">poepen</tspan>
            </text>
            <text id="poepen-copy-33" transform="translate(450.470163, 876.973127) rotate(-9.000000) translate(-450.470163, -876.973127) " font-size="72">
                <tspan x="367.470163" y="901.473127">poepen</tspan>
            </text>
            <text id="poepen-copy-21" transform="translate(493.470163, 487.973127) rotate(14.000000) translate(-493.470163, -487.973127) " font-size="72">
                <tspan x="410.470163" y="512.473127">poepen</tspan>
            </text>
            <text id="poepen-copy-20" transform="translate(415.470163, 360.973127) rotate(-9.000000) translate(-415.470163, -360.973127) " font-size="72">
                <tspan x="332.470163" y="385.473127">poepen</tspan>
            </text>
            <text id="poepen-copy-9" transform="translate(315.470163, 189.973127) rotate(-9.000000) translate(-315.470163, -189.973127) " font-size="72">
                <tspan x="232.470163" y="214.473127">poepen</tspan>
            </text>
            <text id="poepen-copy-37" transform="translate(90.470163, 263.973127) rotate(-9.000000) translate(-90.470163, -263.973127) " font-size="72">
                <tspan x="7.47016257" y="288.473127">poepen</tspan>
            </text>
            <text id="poepen-copy-39" transform="translate(614.470163, 255.446253) rotate(-9.000000) translate(-614.470163, -255.446253) " font-size="72">
                <tspan x="531.470163" y="279.946253">poepen</tspan>
            </text>
            <text id="poepen-copy-38" transform="translate(398.470163, 54.500000) rotate(-9.000000) translate(-398.470163, -54.500000) " font-size="72">
                <tspan x="315.470163" y="79">poepen</tspan>
            </text>
            <text id="poepen-copy-10" transform="translate(563.470163, 394.973127) rotate(-9.000000) translate(-563.470163, -394.973127) " font-size="72">
                <tspan x="480.470163" y="419.473127">poepen</tspan>
            </text>
            <text id="poepen-copy-13" transform="translate(513.118651, 466.843542) rotate(10.000000) translate(-513.118651, -466.843542) " font-size="48">
                <tspan x="457.618651" y="483.343542">poepen</tspan>
            </text>
            <text id="poepen-copy-14" transform="translate(168.432155, 364.719687) rotate(10.000000) translate(-168.432155, -364.719687) " font-size="48">
                <tspan x="112.932155" y="381.219687">poepen</tspan>
            </text>
            <text id="poepen-copy-15" transform="translate(168.432155, 364.719687) rotate(10.000000) translate(-168.432155, -364.719687) " font-size="48">
                <tspan x="112.932155" y="381.219687">poepen</tspan>
            </text>
            <text id="poepen-copy-16" transform="translate(438.432155, 369.719687) rotate(10.000000) translate(-438.432155, -369.719687) " font-size="48">
                <tspan x="382.932155" y="386.219687">poepen</tspan>
            </text>
            <text id="poepen-copy-17" transform="translate(167.432155, 426.719687) rotate(-13.000000) translate(-167.432155, -426.719687) " font-size="48">
                <tspan x="111.932155" y="443.219687">poepen</tspan>
            </text>
            <text id="poepen-copy-18" transform="translate(163.263693, 466.279960) rotate(-13.000000) translate(-163.263693, -466.279960) " font-size="48">
                <tspan x="107.763693" y="482.77996">poepen</tspan>
            </text>
            <text id="poepen-copy-22" transform="translate(263.047854, 507.310055) rotate(-13.000000) translate(-263.047854, -507.310055) " font-size="36">
                <tspan x="221.547854" y="519.810055">poepen</tspan>
            </text>
            <text id="poepen-copy-23" transform="translate(212.047854, 353.310055) rotate(-13.000000) translate(-212.047854, -353.310055) " font-size="36">
                <tspan x="170.547854" y="365.810055">poepen</tspan>
            </text>
            <text id="poepen-copy-24" transform="translate(212.047854, 353.310055) rotate(-13.000000) translate(-212.047854, -353.310055) " font-size="36">
                <tspan x="170.547854" y="365.810055">poepen</tspan>
            </text>
            <text id="poepen-copy-25" transform="translate(118.047854, 425.310055) rotate(-13.000000) translate(-118.047854, -425.310055) " font-size="36">
                <tspan x="76.5478543" y="437.810055">poepen</tspan>
            </text>
            <text id="poepen-copy-26" transform="translate(214.047854, 471.310055) rotate(-13.000000) translate(-214.047854, -471.310055) " font-size="36">
                <tspan x="172.547854" y="483.810055">poepen</tspan>
            </text>
            <text id="poepen-copy-19" transform="translate(547.263693, 454.279960) rotate(11.000000) translate(-547.263693, -454.279960) " font-size="48">
                <tspan x="491.763693" y="470.77996">poepen</tspan>
            </text>
            <text id="poepen-copy-11" transform="translate(117.470163, 400.973127) rotate(-9.000000) translate(-117.470163, -400.973127) " font-size="72">
                <tspan x="34.4701626" y="425.473127">poepen</tspan>
            </text>
            <text id="poepen-copy-27" transform="translate(152.470163, 502.973127) rotate(-9.000000) translate(-152.470163, -502.973127) " font-size="72">
                <tspan x="69.4701626" y="527.473127">poepen</tspan>
            </text>
            <text id="poepen-copy-28" transform="translate(393.470163, 337.973127) rotate(-9.000000) translate(-393.470163, -337.973127) " font-size="72">
                <tspan x="310.470163" y="362.473127">poepen</tspan>
            </text>
            <text id="poepen-copy-29" transform="translate(283.470163, 337.973127) rotate(-9.000000) translate(-283.470163, -337.973127) " font-size="72">
                <tspan x="200.470163" y="362.473127">poepen</tspan>
            </text>
            <text id="poepen-copy-12" transform="translate(227.470163, 448.973127) rotate(-9.000000) translate(-227.470163, -448.973127) " font-size="72">
                <tspan x="144.470163" y="473.473127">poepen</tspan>
            </text>
        </g>
    </g>
</svg>